<svg xmlns="http://www.w3.org/2000/svg" width="64" height="64" enable-background="new 0 0 64 64" viewBox="0 0 64 64"><path d="M52,29c0.552,0,1-0.448,1-1v-2h1c0.552,0,1-0.448,1-1v-3.901c0.004-0.034,0.02-0.064,0.02-0.099
		c0-0.397-0.232-0.741-0.568-0.902L32.563,5.174c-0.34-0.231-0.787-0.231-1.127,0c0,0-22,15-22,15C9.177,20.351,9,20.686,9,21
		c0,0,0,4,0,4c0,0.552,0.448,1,1,1h1v2c0,0.552,0.448,1,1,1h1v21h-1c-0.552,0-1,0.448-1,1v2h-1c-0.552,0-1,0.448-1,1v4
		c0,0.552,0.448,1,1,1h44c0.552,0,1-0.448,1-1v-4c0-0.552-0.448-1-1-1h-1v-2c0-0.552-0.448-1-1-1h-1V29H52z M51,27h-5v-1h5V27z
		 M45,50c-0.552,0-1,0.448-1,1v2h-2v-2c0-0.552-0.448-1-1-1h-1V29h1c0.552,0,1-0.448,1-1v-2h2v2c0,0.552,0.448,1,1,1h1v21H45z
		 M35,53v-1h5v1H35z M31,53v-2c0-0.552-0.448-1-1-1h-1V29h1c0.552,0,1-0.448,1-1v-2h2v2c0,0.552,0.448,1,1,1h1v21h-1
		c-0.552,0-1,0.448-1,1v2H31z M24,53v-1h5v1H24z M20,53v-2c0-0.552-0.448-1-1-1h-1V29h1c0.552,0,1-0.448,1-1v-2h2v2
		c0,0.552,0.448,1,1,1h1v21h-1c-0.552,0-1,0.448-1,1v2H20z M29,26v1h-5v-1H29z M27,50h-1V29h1V50z M40,26v1h-5v-1H40z M38,50h-1V29
		h1V50z M11,24v-2h42v2H11z M32,7.21L50.758,20H13.242L32,7.21z M18,26v1h-5v-1H18z M15,29h1v21h-1V29z M13,52h5v1h-5V52z M53,57H11
		v-2h42V57z M46,53v-1h5v1H46z M49,50h-1V29h1V50z"/></svg>